<svg xmlns="http://www.w3.org/2000/svg" xmlns:xlink="http://www.w3.org/1999/xlink" width="1776" height="800" viewBox="0 0 1776 800"><defs><style>.a{fill:#fff;stroke:#707070;}.b{fill:none;}.c{clip-path:url(#a);}.d{clip-path:url(#b);}.e{fill:#2b6438;}</style><clipPath id="a"><rect class="a" width="1776" height="800"/></clipPath><clipPath id="b"><rect class="b" width="2264" height="496"/></clipPath></defs><g class="c"><g class="d" transform="translate(0 104)"><g transform="translate(-192 8)"><rect class="e" width="40" height="384" transform="translate(256 104)"/><rect class="e" width="144" height="320" rx="8" transform="translate(200)"/><rect class="e" width="80" height="96" rx="8" transform="translate(192 184)"/><rect class="e" width="80" height="96" rx="8" transform="translate(272 96)"/><rect class="e" width="80" height="96" rx="8" transform="translate(192 -8)"/></g><g transform="translate(30 8)"><rect class="e" width="40" height="384" transform="translate(256 104)"/><rect class="e" width="144" height="320" rx="8" transform="translate(200)"/><rect class="e" width="80" height="96" rx="8" transform="translate(192 184)"/><rect class="e" width="80" height="96" rx="8" transform="translate(272 96)"/><rect class="e" width="80" height="96" rx="8" transform="translate(192 -8)"/></g><g transform="translate(252 8)"><rect class="e" width="40" height="384" transform="translate(256 104)"/><rect class="e" width="144" height="320" rx="8" transform="translate(200)"/><rect class="e" width="80" height="96" rx="8" transform="translate(192 184)"/><rect class="e" width="80" height="96" rx="8" transform="translate(272 96)"/><rect class="e" width="80" height="96" rx="8" transform="translate(192 -8)"/></g><g transform="translate(474 8)"><rect class="e" width="40" height="384" transform="translate(256 104)"/><rect class="e" width="144" height="320" rx="8" transform="translate(200)"/><rect class="e" width="80" height="96" rx="8" transform="translate(192 184)"/><rect class="e" width="80" height="96" rx="8" transform="translate(272 96)"/><rect class="e" width="80" height="96" rx="8" transform="translate(192 -8)"/></g><g transform="translate(696 8)"><rect class="e" width="40" height="384" transform="translate(256 104)"/><rect class="e" width="144" height="320" rx="8" transform="translate(200)"/><rect class="e" width="80" height="96" rx="8" transform="translate(192 184)"/><rect class="e" width="80" height="96" rx="8" transform="translate(272 96)"/><rect class="e" width="80" height="96" rx="8" transform="translate(192 -8)"/></g><g transform="translate(918 8)"><rect class="e" width="40" height="384" transform="translate(256 104)"/><rect class="e" width="144" height="320" rx="8" transform="translate(200)"/><rect class="e" width="80" height="96" rx="8" transform="translate(192 184)"/><rect class="e" width="80" height="96" rx="8" transform="translate(272 96)"/><rect class="e" width="80" height="96" rx="8" transform="translate(192 -8)"/></g><g transform="translate(1140 8)"><rect class="e" width="40" height="384" transform="translate(256 104)"/><rect class="e" width="144" height="320" rx="8" transform="translate(200)"/><rect class="e" width="80" height="96" rx="8" transform="translate(192 184)"/><rect class="e" width="80" height="96" rx="8" transform="translate(272 96)"/><rect class="e" width="80" height="96" rx="8" transform="translate(192 -8)"/></g><g transform="translate(1362 8)"><rect class="e" width="40" height="384" transform="translate(256 104)"/><rect class="e" width="144" height="320" rx="8" transform="translate(200)"/><rect class="e" width="80" height="96" rx="8" transform="translate(192 184)"/><rect class="e" width="80" height="96" rx="8" transform="translate(272 96)"/><rect class="e" width="80" height="96" rx="8" transform="translate(192 -8)"/></g><g transform="translate(1584 8)"><rect class="e" width="40" height="384" transform="translate(256 104)"/><rect class="e" width="144" height="320" rx="8" transform="translate(200)"/><rect class="e" width="80" height="96" rx="8" transform="translate(192 184)"/><rect class="e" width="80" height="96" rx="8" transform="translate(272 96)"/><rect class="e" width="80" height="96" rx="8" transform="translate(192 -8)"/></g><g transform="translate(1806 8)"><rect class="e" width="40" height="384" transform="translate(256 104)"/><rect class="e" width="144" height="320" rx="8" transform="translate(200)"/><rect class="e" width="80" height="96" rx="8" transform="translate(192 184)"/><rect class="e" width="80" height="96" rx="8" transform="translate(272 96)"/><rect class="e" width="80" height="96" rx="8" transform="translate(192 -8)"/></g><g transform="translate(2028 8)"><rect class="e" width="40" height="384" transform="translate(256 104)"/><rect class="e" width="144" height="320" rx="8" transform="translate(200)"/><rect class="e" width="80" height="96" rx="8" transform="translate(192 184)"/><rect class="e" width="80" height="96" rx="8" transform="translate(272 96)"/><rect class="e" width="80" height="96" rx="8" transform="translate(192 -8)"/></g></g></g></svg>