<svg xmlns="http://www.w3.org/2000/svg" xmlns:xlink="http://www.w3.org/1999/xlink" width="1776" height="800" viewBox="0 0 1776 800"><defs><style>.a{fill:#fff;stroke:#707070;}.b{fill:none;}.c{clip-path:url(#a);}.d{clip-path:url(#b);}.e{clip-path:url(#c);}.f{fill:#7ebe8d;}.g{fill:#6aa778;stroke:#6aa778;}.h{fill:#cbffb4;}.i{stroke:none;}</style><clipPath id="a"><rect class="a" width="1776" height="800"/></clipPath><clipPath id="b"><rect class="b" width="1976" height="600"/></clipPath><clipPath id="c"><rect class="a" width="640" height="600" transform="translate(64 64)"/></clipPath></defs><g class="c"><g class="d" transform="translate(-200)"><g transform="translate(200)"><g class="e" transform="translate(-264 -64)"><g transform="translate(160 64)"><path class="f" d="M-1114.5,40.625H-1371a78.4,78.4,0,0,1,64.173-77.091,53.44,53.44,0,0,1,53.39-51.159h55.5A49.818,49.818,0,0,1-1157-109h64.125A49.875,49.875,0,0,1-1043-59.125h14A49.9,49.9,0,0,1-981.19-23.5h2.065A64.125,64.125,0,0,1-915,40.625Z" transform="translate(1355 559.375)"/><g class="g" transform="translate(104)"><rect class="i" width="192" height="600"/><rect class="b" x="0.5" y="0.5" width="191" height="599"/></g><g class="g"><rect class="i" width="448" height="80"/><rect class="b" x="0.5" y="0.5" width="447" height="79"/></g><g class="g" transform="translate(320 40)"><rect class="i" width="224" height="120" rx="8"/><rect class="b" x="0.5" y="0.5" width="223" height="119" rx="7.5"/></g><g class="g" transform="translate(-96 16)"><rect class="i" width="160" height="120" rx="8"/><rect class="b" x="0.5" y="0.5" width="159" height="119" rx="7.5"/></g><g class="g" transform="translate(208 176)"><rect class="i" width="224" height="24"/><rect class="b" x="0.5" y="0.5" width="223" height="23"/></g><g class="g" transform="translate(59 96)"><rect class="i" width="50" height="24"/><rect class="b" x="0.5" y="0.5" width="49" height="23"/></g><g class="g" transform="translate(424 128)"><rect class="i" width="24" height="72" rx="8"/><rect class="b" x="0.5" y="0.5" width="23" height="71" rx="7.5"/></g><g class="g" transform="translate(88 152)"><rect class="i" width="32" height="24" rx="8"/><rect class="b" x="0.5" y="0.5" width="31" height="23" rx="7.5"/></g><path class="f" d="M-1243,59h-128a56.011,56.011,0,0,1,48.638-55.521A56.457,56.457,0,0,1-1323-5a56.005,56.005,0,0,1,51.347-55.809A60.025,60.025,0,0,1-1215-101h64a60,60,0,0,1,60,60,60.281,60.281,0,0,1-1.218,12.087,44.018,44.018,0,0,1,40.686,37.053A56.008,56.008,0,0,1-1019,59Z" transform="translate(1275 541)"/><rect class="h" width="8" height="16" rx="4" transform="translate(248 592)"/><rect class="h" width="8" height="16" rx="4" transform="translate(240 592)"/><rect class="h" width="8" height="16" rx="4" transform="translate(24 592)"/><rect class="h" width="8" height="32" rx="4" transform="translate(408 576)"/><rect class="h" width="8" height="16" rx="4" transform="translate(256 592)"/><rect class="h" width="8" height="16" rx="4" transform="translate(424 592)"/></g></g></g><g transform="translate(792)"><g class="e" transform="translate(-264 -64)"><g transform="translate(160 64)"><path class="f" d="M-1114.5,40.625H-1371a78.4,78.4,0,0,1,64.173-77.091,53.44,53.44,0,0,1,53.39-51.159h55.5A49.818,49.818,0,0,1-1157-109h64.125A49.875,49.875,0,0,1-1043-59.125h14A49.9,49.9,0,0,1-981.19-23.5h2.065A64.125,64.125,0,0,1-915,40.625Z" transform="translate(1355 559.375)"/><g class="g" transform="translate(104)"><rect class="i" width="192" height="600"/><rect class="b" x="0.5" y="0.5" width="191" height="599"/></g><g class="g"><rect class="i" width="448" height="80"/><rect class="b" x="0.5" y="0.5" width="447" height="79"/></g><g class="g" transform="translate(320 40)"><rect class="i" width="224" height="120" rx="8"/><rect class="b" x="0.5" y="0.5" width="223" height="119" rx="7.5"/></g><g class="g" transform="translate(-96 16)"><rect class="i" width="160" height="120" rx="8"/><rect class="b" x="0.5" y="0.5" width="159" height="119" rx="7.5"/></g><g class="g" transform="translate(208 176)"><rect class="i" width="224" height="24"/><rect class="b" x="0.5" y="0.5" width="223" height="23"/></g><g class="g" transform="translate(59 96)"><rect class="i" width="50" height="24"/><rect class="b" x="0.5" y="0.5" width="49" height="23"/></g><g class="g" transform="translate(424 128)"><rect class="i" width="24" height="72" rx="8"/><rect class="b" x="0.5" y="0.5" width="23" height="71" rx="7.5"/></g><g class="g" transform="translate(88 152)"><rect class="i" width="32" height="24" rx="8"/><rect class="b" x="0.5" y="0.5" width="31" height="23" rx="7.5"/></g><path class="f" d="M-1243,59h-128a56.011,56.011,0,0,1,48.638-55.521A56.457,56.457,0,0,1-1323-5a56.005,56.005,0,0,1,51.347-55.809A60.025,60.025,0,0,1-1215-101h64a60,60,0,0,1,60,60,60.281,60.281,0,0,1-1.218,12.087,44.018,44.018,0,0,1,40.686,37.053A56.008,56.008,0,0,1-1019,59Z" transform="translate(1275 541)"/><rect class="h" width="8" height="16" rx="4" transform="translate(248 592)"/><rect class="h" width="8" height="16" rx="4" transform="translate(240 592)"/><rect class="h" width="8" height="16" rx="4" transform="translate(24 592)"/><rect class="h" width="8" height="32" rx="4" transform="translate(408 576)"/><rect class="h" width="8" height="16" rx="4" transform="translate(256 592)"/><rect class="h" width="8" height="16" rx="4" transform="translate(424 592)"/></g></g></g><g transform="translate(1384)"><g class="e" transform="translate(-264 -64)"><g transform="translate(160 64)"><path class="f" d="M-1114.5,40.625H-1371a78.4,78.4,0,0,1,64.173-77.091,53.44,53.44,0,0,1,53.39-51.159h55.5A49.818,49.818,0,0,1-1157-109h64.125A49.875,49.875,0,0,1-1043-59.125h14A49.9,49.9,0,0,1-981.19-23.5h2.065A64.125,64.125,0,0,1-915,40.625Z" transform="translate(1355 559.375)"/><g class="g" transform="translate(104)"><rect class="i" width="192" height="600"/><rect class="b" x="0.5" y="0.5" width="191" height="599"/></g><g class="g"><rect class="i" width="448" height="80"/><rect class="b" x="0.5" y="0.5" width="447" height="79"/></g><g class="g" transform="translate(320 40)"><rect class="i" width="224" height="120" rx="8"/><rect class="b" x="0.5" y="0.5" width="223" height="119" rx="7.5"/></g><g class="g" transform="translate(-96 16)"><rect class="i" width="160" height="120" rx="8"/><rect class="b" x="0.5" y="0.5" width="159" height="119" rx="7.5"/></g><g class="g" transform="translate(208 176)"><rect class="i" width="224" height="24"/><rect class="b" x="0.5" y="0.5" width="223" height="23"/></g><g class="g" transform="translate(59 96)"><rect class="i" width="50" height="24"/><rect class="b" x="0.5" y="0.5" width="49" height="23"/></g><g class="g" transform="translate(424 128)"><rect class="i" width="24" height="72" rx="8"/><rect class="b" x="0.5" y="0.5" width="23" height="71" rx="7.5"/></g><g class="g" transform="translate(88 152)"><rect class="i" width="32" height="24" rx="8"/><rect class="b" x="0.5" y="0.5" width="31" height="23" rx="7.5"/></g><path class="f" d="M-1243,59h-128a56.011,56.011,0,0,1,48.638-55.521A56.457,56.457,0,0,1-1323-5a56.005,56.005,0,0,1,51.347-55.809A60.025,60.025,0,0,1-1215-101h64a60,60,0,0,1,60,60,60.281,60.281,0,0,1-1.218,12.087,44.018,44.018,0,0,1,40.686,37.053A56.008,56.008,0,0,1-1019,59Z" transform="translate(1275 541)"/><rect class="h" width="8" height="16" rx="4" transform="translate(248 592)"/><rect class="h" width="8" height="16" rx="4" transform="translate(240 592)"/><rect class="h" width="8" height="16" rx="4" transform="translate(24 592)"/><rect class="h" width="8" height="32" rx="4" transform="translate(408 576)"/><rect class="h" width="8" height="16" rx="4" transform="translate(256 592)"/><rect class="h" width="8" height="16" rx="4" transform="translate(424 592)"/></g></g></g><g transform="translate(1976)"><g class="e" transform="translate(-264 -64)"><g transform="translate(160 64)"><path class="f" d="M-1114.5,40.625H-1371a78.4,78.4,0,0,1,64.173-77.091,53.44,53.44,0,0,1,53.39-51.159h55.5A49.818,49.818,0,0,1-1157-109h64.125A49.875,49.875,0,0,1-1043-59.125h14A49.9,49.9,0,0,1-981.19-23.5h2.065A64.125,64.125,0,0,1-915,40.625Z" transform="translate(1355 559.375)"/><g class="g" transform="translate(104)"><rect class="i" width="192" height="600"/><rect class="b" x="0.5" y="0.5" width="191" height="599"/></g><g class="g"><rect class="i" width="448" height="80"/><rect class="b" x="0.5" y="0.5" width="447" height="79"/></g><g class="g" transform="translate(320 40)"><rect class="i" width="224" height="120" rx="8"/><rect class="b" x="0.5" y="0.5" width="223" height="119" rx="7.5"/></g><g class="g" transform="translate(-96 16)"><rect class="i" width="160" height="120" rx="8"/><rect class="b" x="0.5" y="0.5" width="159" height="119" rx="7.5"/></g><g class="g" transform="translate(208 176)"><rect class="i" width="224" height="24"/><rect class="b" x="0.5" y="0.5" width="223" height="23"/></g><g class="g" transform="translate(59 96)"><rect class="i" width="50" height="24"/><rect class="b" x="0.5" y="0.5" width="49" height="23"/></g><g class="g" transform="translate(424 128)"><rect class="i" width="24" height="72" rx="8"/><rect class="b" x="0.5" y="0.5" width="23" height="71" rx="7.5"/></g><g class="g" transform="translate(88 152)"><rect class="i" width="32" height="24" rx="8"/><rect class="b" x="0.5" y="0.5" width="31" height="23" rx="7.5"/></g><path class="f" d="M-1243,59h-128a56.011,56.011,0,0,1,48.638-55.521A56.457,56.457,0,0,1-1323-5a56.005,56.005,0,0,1,51.347-55.809A60.025,60.025,0,0,1-1215-101h64a60,60,0,0,1,60,60,60.281,60.281,0,0,1-1.218,12.087,44.018,44.018,0,0,1,40.686,37.053A56.008,56.008,0,0,1-1019,59Z" transform="translate(1275 541)"/><rect class="h" width="8" height="16" rx="4" transform="translate(248 592)"/><rect class="h" width="8" height="16" rx="4" transform="translate(240 592)"/><rect class="h" width="8" height="16" rx="4" transform="translate(24 592)"/><rect class="h" width="8" height="32" rx="4" transform="translate(408 576)"/><rect class="h" width="8" height="16" rx="4" transform="translate(256 592)"/><rect class="h" width="8" height="16" rx="4" transform="translate(424 592)"/></g></g></g></g></g></svg>