<svg xmlns="http://www.w3.org/2000/svg" xmlns:xlink="http://www.w3.org/1999/xlink" width="1776" height="800" viewBox="0 0 1776 800"><defs><style>.a{fill:#fff;stroke:#707070;}.b{clip-path:url(#a);}.c{fill:#20552c;}.d{fill:#cbffb4;}.e{fill:#2b6438;}</style><clipPath id="a"><rect class="a" width="1776" height="800"/></clipPath></defs><g class="b"><rect class="c" width="1776" height="200" transform="translate(0 600)"/><rect class="d" width="1920" height="32" transform="translate(0 600)"/><rect class="e" width="72" height="40" rx="8" transform="translate(104 672)"/><rect class="e" width="72" height="40" rx="8" transform="translate(136 688)"/><rect class="e" width="72" height="40" rx="8" transform="translate(296 728)"/><rect class="e" width="72" height="40" rx="8" transform="translate(352 720)"/><rect class="e" width="72" height="40" rx="8" transform="translate(880 700)"/><rect class="e" width="72" height="40" rx="8" transform="translate(616 672)"/><rect class="e" width="72" height="40" rx="8" transform="translate(1280 780)"/><rect class="e" width="72" height="40" rx="8" transform="translate(920 720)"/><rect class="e" width="72" height="40" rx="8" transform="translate(1557 680)"/><rect class="e" width="72" height="40" rx="8" transform="translate(1128 680)"/><rect class="e" width="72" height="40" rx="8" transform="translate(1184 672)"/><rect class="e" width="72" height="40" rx="8" transform="translate(1510 700)"/><rect class="e" width="72" height="40" rx="8" transform="translate(1686 728)"/><rect class="e" width="72" height="40" rx="8" transform="translate(48 784)"/></g></svg>