<svg xmlns="http://www.w3.org/2000/svg" xmlns:xlink="http://www.w3.org/1999/xlink" width="1776" height="800" viewBox="0 0 1776 800"><defs><style>.a{fill:#fff;stroke:#707070;}.b{clip-path:url(#a);}.c{fill:#519160;}</style><clipPath id="a"><rect class="a" width="1776" height="800"/></clipPath></defs><g class="b"><g transform="translate(-136)"><rect class="c" width="96" height="384" transform="translate(248 216)"/><path class="c" d="M8,0h8a8,8,0,0,1,8,8V176a8,8,0,0,1-8,8H0a0,0,0,0,1,0,0V8A8,8,0,0,1,8,0Z" transform="translate(376 216)"/><path class="c" d="M0,0H256a0,0,0,0,1,0,0V352a8,8,0,0,1-8,8H8a8,8,0,0,1-8-8V0A0,0,0,0,1,0,0Z" transform="translate(168)"/><rect class="c" width="168" height="136" rx="8" transform="translate(288 208)"/><rect class="c" width="168" height="136" rx="8" transform="translate(136 144)"/><rect class="c" width="48" height="24" transform="translate(336 376)"/><path class="c" d="M-1114.5,40.625H-1235a86.4,86.4,0,0,1,69.393-84.706,49.87,49.87,0,0,1,44.482-27.294h1.424a49.894,49.894,0,0,1,46.576-32H-1033a49.9,49.9,0,0,1,48.018,36.347A49.883,49.883,0,0,1-955.5-21.5q0,1.241-.06,2.468A64.146,64.146,0,0,1-915,40.625Z" transform="translate(1371 559.375)"/></g><g transform="translate(308)"><rect class="c" width="96" height="384" transform="translate(248 216)"/><path class="c" d="M8,0h8a8,8,0,0,1,8,8V176a8,8,0,0,1-8,8H0a0,0,0,0,1,0,0V8A8,8,0,0,1,8,0Z" transform="translate(376 216)"/><path class="c" d="M0,0H256a0,0,0,0,1,0,0V352a8,8,0,0,1-8,8H8a8,8,0,0,1-8-8V0A0,0,0,0,1,0,0Z" transform="translate(168)"/><rect class="c" width="168" height="136" rx="8" transform="translate(288 208)"/><rect class="c" width="168" height="136" rx="8" transform="translate(136 144)"/><rect class="c" width="48" height="24" transform="translate(336 376)"/><path class="c" d="M-1114.5,40.625H-1235a86.4,86.4,0,0,1,69.393-84.706,49.87,49.87,0,0,1,44.482-27.294h1.424a49.894,49.894,0,0,1,46.576-32H-1033a49.9,49.9,0,0,1,48.018,36.347A49.883,49.883,0,0,1-955.5-21.5q0,1.241-.06,2.468A64.146,64.146,0,0,1-915,40.625Z" transform="translate(1371 559.375)"/></g><g transform="translate(752)"><rect class="c" width="96" height="384" transform="translate(248 216)"/><path class="c" d="M8,0h8a8,8,0,0,1,8,8V176a8,8,0,0,1-8,8H0a0,0,0,0,1,0,0V8A8,8,0,0,1,8,0Z" transform="translate(376 216)"/><path class="c" d="M0,0H256a0,0,0,0,1,0,0V352a8,8,0,0,1-8,8H8a8,8,0,0,1-8-8V0A0,0,0,0,1,0,0Z" transform="translate(168)"/><rect class="c" width="168" height="136" rx="8" transform="translate(288 208)"/><rect class="c" width="168" height="136" rx="8" transform="translate(136 144)"/><rect class="c" width="48" height="24" transform="translate(336 376)"/><path class="c" d="M-1114.5,40.625H-1235a86.4,86.4,0,0,1,69.393-84.706,49.87,49.87,0,0,1,44.482-27.294h1.424a49.894,49.894,0,0,1,46.576-32H-1033a49.9,49.9,0,0,1,48.018,36.347A49.883,49.883,0,0,1-955.5-21.5q0,1.241-.06,2.468A64.146,64.146,0,0,1-915,40.625Z" transform="translate(1371 559.375)"/></g><g transform="translate(1196)"><rect class="c" width="96" height="384" transform="translate(248 216)"/><path class="c" d="M8,0h8a8,8,0,0,1,8,8V176a8,8,0,0,1-8,8H0a0,0,0,0,1,0,0V8A8,8,0,0,1,8,0Z" transform="translate(376 216)"/><path class="c" d="M0,0H256a0,0,0,0,1,0,0V352a8,8,0,0,1-8,8H8a8,8,0,0,1-8-8V0A0,0,0,0,1,0,0Z" transform="translate(168)"/><rect class="c" width="168" height="136" rx="8" transform="translate(288 208)"/><rect class="c" width="168" height="136" rx="8" transform="translate(136 144)"/><rect class="c" width="48" height="24" transform="translate(336 376)"/><path class="c" d="M-1114.5,40.625H-1235a86.4,86.4,0,0,1,69.393-84.706,49.87,49.87,0,0,1,44.482-27.294h1.424a49.894,49.894,0,0,1,46.576-32H-1033a49.9,49.9,0,0,1,48.018,36.347A49.883,49.883,0,0,1-955.5-21.5q0,1.241-.06,2.468A64.146,64.146,0,0,1-915,40.625Z" transform="translate(1371 559.375)"/></g><g transform="translate(1640)"><rect class="c" width="96" height="384" transform="translate(248 216)"/><path class="c" d="M8,0h8a8,8,0,0,1,8,8V176a8,8,0,0,1-8,8H0a0,0,0,0,1,0,0V8A8,8,0,0,1,8,0Z" transform="translate(376 216)"/><path class="c" d="M0,0H256a0,0,0,0,1,0,0V352a8,8,0,0,1-8,8H8a8,8,0,0,1-8-8V0A0,0,0,0,1,0,0Z" transform="translate(168)"/><rect class="c" width="168" height="136" rx="8" transform="translate(288 208)"/><rect class="c" width="168" height="136" rx="8" transform="translate(136 144)"/><rect class="c" width="48" height="24" transform="translate(336 376)"/><path class="c" d="M-1114.5,40.625H-1235a86.4,86.4,0,0,1,69.393-84.706,49.87,49.87,0,0,1,44.482-27.294h1.424a49.894,49.894,0,0,1,46.576-32H-1033a49.9,49.9,0,0,1,48.018,36.347A49.883,49.883,0,0,1-955.5-21.5q0,1.241-.06,2.468A64.146,64.146,0,0,1-915,40.625Z" transform="translate(1371 559.375)"/></g><g transform="translate(2084)"><rect class="c" width="96" height="384" transform="translate(248 216)"/><path class="c" d="M8,0h8a8,8,0,0,1,8,8V176a8,8,0,0,1-8,8H0a0,0,0,0,1,0,0V8A8,8,0,0,1,8,0Z" transform="translate(376 216)"/><path class="c" d="M0,0H256a0,0,0,0,1,0,0V352a8,8,0,0,1-8,8H8a8,8,0,0,1-8-8V0A0,0,0,0,1,0,0Z" transform="translate(168)"/><rect class="c" width="168" height="136" rx="8" transform="translate(288 208)"/><rect class="c" width="168" height="136" rx="8" transform="translate(136 144)"/><rect class="c" width="48" height="24" transform="translate(336 376)"/><path class="c" d="M-1114.5,40.625H-1235a86.4,86.4,0,0,1,69.393-84.706,49.87,49.87,0,0,1,44.482-27.294h1.424a49.894,49.894,0,0,1,46.576-32H-1033a49.9,49.9,0,0,1,48.018,36.347A49.883,49.883,0,0,1-955.5-21.5q0,1.241-.06,2.468A64.146,64.146,0,0,1-915,40.625Z" transform="translate(1371 559.375)"/></g></g></svg>