<svg xmlns="http://www.w3.org/2000/svg" width="350" height="60" viewBox="0 0 350 60"><defs><style>.a{fill:#ffc440;}.b{fill:#20552c;}</style></defs><g transform="translate(-465 -296)"><rect class="a" width="350" height="60" rx="30" transform="translate(465 296)"/><path class="b" d="M-127.043-9.07h1.2a3.981,3.981,0,0,0,2.508-.662,2.317,2.317,0,0,0,.832-1.928,2.376,2.376,0,0,0-.7-1.887,3.267,3.267,0,0,0-2.186-.609h-1.652Zm8.2-2.719a5.237,5.237,0,0,1-1.729,4.23,7.393,7.393,0,0,1-4.916,1.465h-1.559V0h-3.633V-17.133h5.473a7.279,7.279,0,0,1,4.74,1.342A4.892,4.892,0,0,1-118.84-11.789Zm6.867,2.262h1.172a4.483,4.483,0,0,0,2.543-.574,2.05,2.05,0,0,0,.82-1.8,1.875,1.875,0,0,0-.838-1.734,5.084,5.084,0,0,0-2.6-.516h-1.1Zm0,2.953V0h-3.633V-17.133h4.992a8.544,8.544,0,0,1,5.168,1.271A4.538,4.538,0,0,1-103.77-12a4.546,4.546,0,0,1-.832,2.689,5.505,5.505,0,0,1-2.355,1.846Q-103.09-1.687-101.918,0h-4.031l-4.09-6.574ZM-89.895,0h-9.867V-17.133h9.867v2.977h-6.234v3.762h5.8v2.977h-5.8V-3h6.234Zm13.688-4.758A4.429,4.429,0,0,1-77.877-1.1,7.254,7.254,0,0,1-82.523.234,10.912,10.912,0,0,1-87.375-.8V-4.172a19.993,19.993,0,0,0,2.936,1.09,8.686,8.686,0,0,0,2.2.316,3.124,3.124,0,0,0,1.834-.457,1.563,1.563,0,0,0,.639-1.359,1.5,1.5,0,0,0-.281-.9,3.147,3.147,0,0,0-.826-.756A21.248,21.248,0,0,0-83.1-7.395a10.526,10.526,0,0,1-2.355-1.418,5.323,5.323,0,0,1-1.254-1.582,4.515,4.515,0,0,1-.469-2.109,4.428,4.428,0,0,1,1.541-3.574,6.4,6.4,0,0,1,4.26-1.3,10.059,10.059,0,0,1,2.549.316,17.52,17.52,0,0,1,2.537.891l-1.172,2.824a17.146,17.146,0,0,0-2.268-.785,7.3,7.3,0,0,0-1.764-.223,2.335,2.335,0,0,0-1.582.48,1.585,1.585,0,0,0-.551,1.254,1.552,1.552,0,0,0,.223.838,2.448,2.448,0,0,0,.709.691,21.921,21.921,0,0,0,2.3,1.2,9.163,9.163,0,0,1,3.293,2.3A4.494,4.494,0,0,1-76.207-4.758Zm13.219,0A4.429,4.429,0,0,1-64.658-1.1,7.254,7.254,0,0,1-69.3.234,10.912,10.912,0,0,1-74.156-.8V-4.172a19.993,19.993,0,0,0,2.936,1.09,8.686,8.686,0,0,0,2.2.316,3.124,3.124,0,0,0,1.834-.457,1.563,1.563,0,0,0,.639-1.359,1.5,1.5,0,0,0-.281-.9,3.147,3.147,0,0,0-.826-.756,21.248,21.248,0,0,0-2.221-1.16,10.526,10.526,0,0,1-2.355-1.418,5.323,5.323,0,0,1-1.254-1.582,4.515,4.515,0,0,1-.469-2.109,4.428,4.428,0,0,1,1.541-3.574,6.4,6.4,0,0,1,4.26-1.3,10.059,10.059,0,0,1,2.549.316,17.52,17.52,0,0,1,2.537.891l-1.172,2.824a17.146,17.146,0,0,0-2.268-.785,7.3,7.3,0,0,0-1.764-.223,2.335,2.335,0,0,0-1.582.48,1.585,1.585,0,0,0-.551,1.254,1.552,1.552,0,0,0,.223.838,2.448,2.448,0,0,0,.709.691,21.921,21.921,0,0,0,2.3,1.2,9.163,9.163,0,0,1,3.293,2.3A4.494,4.494,0,0,1-62.988-4.758Zm19.453,0A4.429,4.429,0,0,1-45.205-1.1,7.254,7.254,0,0,1-49.852.234,10.912,10.912,0,0,1-54.7-.8V-4.172a19.993,19.993,0,0,0,2.936,1.09,8.686,8.686,0,0,0,2.2.316,3.124,3.124,0,0,0,1.834-.457A1.563,1.563,0,0,0-47.1-4.582a1.5,1.5,0,0,0-.281-.9,3.147,3.147,0,0,0-.826-.756,21.248,21.248,0,0,0-2.221-1.16,10.526,10.526,0,0,1-2.355-1.418,5.323,5.323,0,0,1-1.254-1.582A4.515,4.515,0,0,1-54.5-12.5a4.428,4.428,0,0,1,1.541-3.574,6.4,6.4,0,0,1,4.26-1.3,10.059,10.059,0,0,1,2.549.316,17.52,17.52,0,0,1,2.537.891l-1.172,2.824a17.146,17.146,0,0,0-2.268-.785,7.3,7.3,0,0,0-1.764-.223,2.335,2.335,0,0,0-1.582.48,1.585,1.585,0,0,0-.551,1.254,1.552,1.552,0,0,0,.223.838,2.448,2.448,0,0,0,.709.691,21.921,21.921,0,0,0,2.3,1.2,9.163,9.163,0,0,1,3.293,2.3A4.494,4.494,0,0,1-43.535-4.758ZM-36.8-9.07h1.2a3.981,3.981,0,0,0,2.508-.662,2.317,2.317,0,0,0,.832-1.928,2.376,2.376,0,0,0-.7-1.887,3.267,3.267,0,0,0-2.186-.609H-36.8Zm8.2-2.719a5.237,5.237,0,0,1-1.729,4.23,7.393,7.393,0,0,1-4.916,1.465H-36.8V0H-40.43V-17.133h5.473a7.279,7.279,0,0,1,4.74,1.342A4.892,4.892,0,0,1-28.594-11.789ZM-16.066,0l-1.242-4.078h-6.246L-24.8,0h-3.914l6.047-17.2h4.441L-12.152,0Zm-2.109-7.125q-1.723-5.543-1.939-6.27t-.311-1.148q-.387,1.5-2.215,7.418ZM-3.2-14.355a3.7,3.7,0,0,0-3.176,1.541A7.169,7.169,0,0,0-7.5-8.52q0,5.73,4.3,5.73a13.6,13.6,0,0,0,4.371-.9V-.645A12.139,12.139,0,0,1-3.539.234,7.185,7.185,0,0,1-9.258-2.033q-1.98-2.268-1.98-6.51a10.63,10.63,0,0,1,.973-4.682,7.03,7.03,0,0,1,2.795-3.082A8.268,8.268,0,0,1-3.2-17.379a11.529,11.529,0,0,1,5.016,1.207L.645-13.219a19.4,19.4,0,0,0-1.934-.8A5.768,5.768,0,0,0-3.2-14.355ZM14.684,0H4.816V-17.133h9.867v2.977H8.449v3.762h5.8v2.977h-5.8V-3h6.234ZM31.1,0H27.469V-14.109H22.816v-3.023H35.754v3.023H31.1ZM53.461-8.59q0,4.254-2.109,6.539A7.82,7.82,0,0,1,45.3.234a7.82,7.82,0,0,1-6.047-2.285q-2.109-2.285-2.109-6.562t2.115-6.533A7.91,7.91,0,0,1,45.328-17.4a7.8,7.8,0,0,1,6.041,2.273Q53.461-12.855,53.461-8.59Zm-12.5,0a7.157,7.157,0,0,0,1.09,4.324A3.813,3.813,0,0,0,45.3-2.812q4.348,0,4.348-5.777t-4.324-5.789a3.839,3.839,0,0,0-3.27,1.459A7.127,7.127,0,0,0,40.957-8.59Zm32.4,3.832A4.429,4.429,0,0,1,71.689-1.1,7.254,7.254,0,0,1,67.043.234,10.912,10.912,0,0,1,62.191-.8V-4.172a19.993,19.993,0,0,0,2.936,1.09,8.686,8.686,0,0,0,2.2.316,3.124,3.124,0,0,0,1.834-.457A1.563,1.563,0,0,0,69.8-4.582a1.5,1.5,0,0,0-.281-.9,3.147,3.147,0,0,0-.826-.756,21.248,21.248,0,0,0-2.221-1.16,10.526,10.526,0,0,1-2.355-1.418,5.323,5.323,0,0,1-1.254-1.582,4.515,4.515,0,0,1-.469-2.109,4.428,4.428,0,0,1,1.541-3.574,6.4,6.4,0,0,1,4.26-1.3,10.059,10.059,0,0,1,2.549.316,17.52,17.52,0,0,1,2.537.891l-1.172,2.824a17.146,17.146,0,0,0-2.268-.785,7.3,7.3,0,0,0-1.764-.223,2.335,2.335,0,0,0-1.582.48,1.585,1.585,0,0,0-.551,1.254,1.552,1.552,0,0,0,.223.838,2.448,2.448,0,0,0,.709.691,21.921,21.921,0,0,0,2.3,1.2,9.163,9.163,0,0,1,3.293,2.3A4.494,4.494,0,0,1,73.359-4.758ZM83.074,0H79.441V-14.109H74.789v-3.023H87.727v3.023H83.074Zm16.1,0L97.934-4.078H91.688L90.445,0H86.531l6.047-17.2H97.02L103.09,0ZM97.066-7.125q-1.723-5.543-1.939-6.27t-.311-1.148q-.387,1.5-2.215,7.418Zm11.813-2.4h1.172a4.483,4.483,0,0,0,2.543-.574,2.05,2.05,0,0,0,.82-1.8,1.875,1.875,0,0,0-.838-1.734,5.084,5.084,0,0,0-2.6-.516h-1.1Zm0,2.953V0h-3.633V-17.133h4.992a8.544,8.544,0,0,1,5.168,1.271A4.538,4.538,0,0,1,117.082-12a4.546,4.546,0,0,1-.832,2.689,5.505,5.505,0,0,1-2.355,1.846Q117.762-1.687,118.934,0H114.9l-4.09-6.574ZM127.7,0h-3.633V-14.109h-4.652v-3.023h12.938v3.023H127.7Z" transform="translate(640 334)"/></g></svg>