<svg xmlns="http://www.w3.org/2000/svg" xmlns:xlink="http://www.w3.org/1999/xlink" width="1015" height="761.247" viewBox="0 0 1015 761.247"><defs><style>.a,.d,.h{fill:none;}.a{stroke:#707070;}.b{clip-path:url(#a);}.c,.f{fill:#fff;}.d,.e{stroke:#519160;}.d{stroke-linecap:round;}.d,.f{stroke-width:8px;}.e{fill:#519160;stroke-linejoin:round;stroke-width:4px;}.f{stroke:#ffc440;}.g{stroke:none;}</style><clipPath id="a"><rect class="a" width="1015" height="761.247" transform="translate(1408 472)"/></clipPath></defs><g class="b" transform="translate(-1408 -472)"><g transform="translate(1359.368 472)"><ellipse class="c" cx="15.859" cy="15.859" rx="15.859" ry="15.859" transform="translate(714.722 31.718)"/><path class="c" d="M15.859,0A15.859,15.859,0,1,1,0,15.859,15.859,15.859,0,0,1,15.859,0Z" transform="translate(288.269 142.619)"/><ellipse class="c" cx="15.859" cy="15.859" rx="15.859" ry="15.859" transform="translate(730.678 300.786)"/><ellipse class="c" cx="7.93" cy="7.93" rx="7.93" ry="7.93" transform="translate(486.452)"/><ellipse class="c" cx="7.93" cy="7.93" rx="7.93" ry="7.93" transform="translate(387.974 277.611)"/><path class="d" d="M0,0V412.342" transform="translate(556.129 348.905)"/><path class="e" d="M0,121.96l91.47-15.245L15.245,213.429,91.47,198.185,30.49,304.9l60.98-15.245L45.735,396.369,91.47,381.124,76.225,487.839,91.47,472.594l15.245,106.715L121.96,472.594l15.245,15.245L121.96,381.124l45.735,15.245L121.96,289.654,182.94,304.9,121.96,198.185l76.225,15.245L121.96,106.715l91.47,15.245L106.715,0Z" transform="translate(0 561.493) rotate(-60)"/><path class="e" d="M0,457.349l91.47,15.245L15.245,365.879,91.47,381.124,30.49,274.409l60.98,15.245L45.735,182.939,91.47,198.185,76.225,91.47,91.47,106.715,106.715,0,121.96,106.715,137.2,91.47,121.96,198.184l45.735-15.245L121.96,289.654l60.98-15.245L121.96,381.124l76.225-15.245L121.96,472.594l91.47-15.245L106.715,579.308Z" transform="translate(610.804 851.148) rotate(-120)"/><path class="e" d="M0,86.429l64.822-10.8L10.8,151.251l54.018-10.8L21.608,216.073l43.215-10.8L32.411,280.9l32.411-10.8-10.8,75.626,10.8-10.8,10.8,75.626,10.8-75.626,10.8,10.8-10.8-75.626,32.411,10.8L86.43,205.27l43.215,10.8L86.429,140.448l54.018,10.8L86.429,75.626l64.822,10.8L75.626,0Z" transform="translate(283.55 442.45) rotate(-30)"/><path class="e" d="M0,324.11l64.822,10.8L10.8,259.288l54.018,10.8L21.607,194.466l43.215,10.8L32.411,129.644l32.411,10.8-10.8-75.626,10.8,10.8L75.626,0l10.8,75.626,10.8-10.8-10.8,75.626,32.411-10.8L86.429,205.27l43.215-10.8L86.429,270.092l54.018-10.8L86.429,334.914l64.822-10.8L75.626,410.54Z" transform="translate(623.68 797.988) rotate(-150)"/><ellipse class="c" cx="158.593" cy="158.593" rx="158.593" ry="158.593" transform="translate(397.536 31.719)"/><g class="f" transform="translate(478.83 111.516)"><ellipse class="g" cx="79.296" cy="79.296" rx="79.296" ry="79.296"/><ellipse class="h" cx="79.296" cy="79.296" rx="75.296" ry="75.296"/></g></g></g></svg>