<svg xmlns="http://www.w3.org/2000/svg" width="359.077" height="238.975" viewBox="0 0 359.077 238.975"><defs><style>.a{fill:#20552c;}</style></defs><path class="a" d="M-78.838-41.045q0-2.681,1.494-2.681a1.7,1.7,0,0,1,1.143.264,10.825,10.825,0,0,0,.989.813q.725.549,4.131.549a15.165,15.165,0,0,0,7.075-1.934,20.616,20.616,0,0,0,6.35-5.186A25.132,25.132,0,0,0-52.031-65.61a21.264,21.264,0,0,0-3.582-12.5A10.968,10.968,0,0,0-65-83.232a26.7,26.7,0,0,0-7.031.7L-88.638-1.362a2.3,2.3,0,0,1-2.5,1.538q-2.021,0-2.021-1.45a3.615,3.615,0,0,1,.132-.9q.132-.505.527-2.483.967-4.966,6.57-31.707t9.514-44.1a24.588,24.588,0,0,0-3.164,2.5,2.425,2.425,0,0,1-.923,1.67,2.913,2.913,0,0,1-1.934.7l-1.1-.264a1.916,1.916,0,0,1-1.23-1.846q0-2.461,2.878-4.548a20.948,20.948,0,0,1,7.185-3.186q1.582-3.779,2.9-3.779,1.055,0,1.582,2.988a26.107,26.107,0,0,1,3.6-.264q9.448,0,14.282,6.68,4,5.537,4,14.634,0,11.689-6.877,19.49t-19.226,7.8a86.576,86.576,0,0,0,5.1,29.312Q-63.413,8.262-51.328,16.26q9.229,6.152,21.753,6.152a35.442,35.442,0,0,0,22.9-8.437q3.12-2.593,6.5-5.625A1.569,1.569,0,0,1,.967,8,1.437,1.437,0,0,1,2.593,9.624a2.863,2.863,0,0,1-.7,1.8A54.744,54.744,0,0,1-11.162,21.753a40.7,40.7,0,0,1-19.666,4.7,40.24,40.24,0,0,1-21.292-6.328Q-70.752,8.613-76.685-18.633A105.8,105.8,0,0,1-78.838-41.045ZM7.295-86.484a1.379,1.379,0,0,1,1.582,1.538,10.206,10.206,0,0,1-.967,3.23,39.351,39.351,0,0,0-1.626,4.68q-.659,2.373-1.736,6.987t-2.241,9.91q-1.165,5.3-2.4,10.92Q-4.526-28.389-6.9-21.27a74.29,74.29,0,0,1-4.263,10.679Q-17.227.879-30.937.879a15.294,15.294,0,0,1-11.953-5.1,17.616,17.616,0,0,1-4.57-12.173,16.053,16.053,0,0,1,.747-5.229q1.538-8.7,2.878-16.589t3.6-20.259q2.263-12.371,6.218-26.653a2.5,2.5,0,0,1,1.934-1.362q1.934,0,1.934,1.538a6.179,6.179,0,0,1-.286,1.077q-.2.549-.374,1.077L-32.52-77.3q-1.934,9.36-4.9,25.818T-42.034-26.96a66.392,66.392,0,0,0-1.648,11.492,12.147,12.147,0,0,0,3.34,8.7Q-37-3.252-30.894-3.252q9.58,0,14.282-5.8a21.242,21.242,0,0,0,3.779-6.68L-10.9-21.4q2.988-9.1,7.625-30.74t7.4-30.828A6.09,6.09,0,0,1,5.537-85.54,2.577,2.577,0,0,1,7.295-86.484Zm16.3.176A1.414,1.414,0,0,1,25-87.231a1.982,1.982,0,0,1,1.56.615,4.828,4.828,0,0,1,.857,2.241q1.494,7.339,9.075,36.3T47.549-6.943q2.065-11.689,7.031-37.507T62.227-85.21a2.88,2.88,0,0,1,1.3-1.582,3.51,3.51,0,0,1,1.824-.615q.835,0,.879.549t.044,1.648q-5.581,26.938-9.932,51.46T51.262-5.208a37.109,37.109,0,0,1-.945,4.482,4.331,4.331,0,0,1-.857,1.1,2.316,2.316,0,0,1-1.714.637q-1.077,0-2.307-2.065a42.426,42.426,0,0,1-2.812-8.7Q41-16.3,35-38.958t-9.47-37.112q-2.065,9.448-7.273,34.629T9.316-.879A2.1,2.1,0,0,1,7.009.879Q5.1.879,5.1-.747q0-.527,3.054-13.118t9.075-42.078Q23.247-85.43,23.6-86.309Zm64.951-12.7q1.143,0,1.538,1.538a77.457,77.457,0,0,1-1.143,9.58q-1.011,5.977-2.065,15.139T82.837-47.769q-2.988,15.82-6.724,31.553a2.677,2.677,0,0,1-2.5,1.8q-1.362,0-1.538-1.8A560.719,560.719,0,0,0,83.5-79.014q.571-4.526,1.406-8.921a64.483,64.483,0,0,0,1.055-8.921,3.162,3.162,0,0,1,1.011-1.516A2.4,2.4,0,0,1,88.55-99.009ZM70.664,2.065a2.549,2.549,0,0,1-1.8-2.615,4.076,4.076,0,0,1,1.6-3.274,4.973,4.973,0,0,1,3.12-1.318,2.753,2.753,0,0,1,2.307,1.011,4.046,4.046,0,0,1,.791,2.571A7.949,7.949,0,0,1,75.432,2.2a3.716,3.716,0,0,1-3.274,2.2,1.561,1.561,0,0,1-1.187-.461,1.439,1.439,0,0,1-.439-1.011A2.236,2.236,0,0,1,70.664,2.065Zm-246.8,136.1q0-.879.176-2.549-1.274-.264-2.593-.483-5.713-.923-5.889-2.681a4.16,4.16,0,0,1-.044-.725,1.76,1.76,0,0,1,.505-1.1,1.365,1.365,0,0,1,.967-.593,3.582,3.582,0,0,1,.945.132q.615.22,2.175.945a10.9,10.9,0,0,0,4.46.725q10.02-49.307,19.468-77.476a45.611,45.611,0,0,0-9.932,4.658,2.792,2.792,0,0,1-.967.22q-1.538,0-1.538-1.626a2.365,2.365,0,0,1,1.1-2.065,51.842,51.842,0,0,1,13.052-5.889,2.267,2.267,0,0,1,1.736-1.143,1.39,1.39,0,0,1,1.208.439,42.51,42.51,0,0,1,9.47-.967,21.733,21.733,0,0,1,9.778,2.241q12.788,6.372,12.788,28.257,0,25.269-12.612,40.693A44.744,44.744,0,0,1-155,133.857a60.487,60.487,0,0,1-16.172,2.021h-.571q-.308,2.944-1.406,3.735a2.118,2.118,0,0,1-1.274.352Q-176.133,139.966-176.133,138.164Zm52.646-58.623q0-27.246-20.522-27.246a30.8,30.8,0,0,0-7.646.879q-7.6,23.818-14.458,55.283-2.373,10.854-4.966,23.555,15.732,0,26.455-7.1a42.936,42.936,0,0,0,15.93-19.006A65.116,65.116,0,0,0-123.486,79.541ZM-111.226,135q-5.142,0-5.142-6.46t4.812-15.842a68.993,68.993,0,0,1,11.316-16.216q6.5-6.833,10.613-6.833t4.68,3.6q.176,1.1.264,2.329a1.7,1.7,0,0,1,.967-.264q2.065,0,2.065,1.978v.352q0,.132-1.1,3.955a119.19,119.19,0,0,0-2.5,12.744,100.246,100.246,0,0,0-1.406,15.249q.4.264.923.593a11.463,11.463,0,0,1,1.318,1.011,2.059,2.059,0,0,1,.791,1.6,2.592,2.592,0,0,1-.571,1.648,1.949,1.949,0,0,1-1.626.725,4.947,4.947,0,0,1-3.889-2.2,7.507,7.507,0,0,1-1.736-4.746q0-5.493,2.988-18.9a74.541,74.541,0,0,1-9.668,15.073q-5.933,7.251-8.2,8.921A8.087,8.087,0,0,1-111.226,135Zm-.659-6.284q0,1.626,1.362,1.626a2.209,2.209,0,0,0,1.626-.659q9.1-7.822,16.3-21.665,4.087-7.91,4.329-9.1a10.389,10.389,0,0,0,.242-2.021,3.072,3.072,0,0,0-.439-1.582,1.364,1.364,0,0,0-1.23-.747,5.578,5.578,0,0,0-2.329.835q-3.384,1.846-8.328,7.866a61.423,61.423,0,0,0-8.24,13.1Q-111.885,123.442-111.885,128.716ZM-46.714,99.4q0-4.351-2.373-4.351-3.164,0-12.085,18.149-4.043,8.218-5.647,12.415t-2.4,5.911a11.014,11.014,0,0,1-1.56,2.593,2.251,2.251,0,0,1-1.714.879q-.945,0-1.121-.461a5.347,5.347,0,0,1-.176-1.67q0-1.208,3.538-20.742t4.087-20.544a3.673,3.673,0,0,1,.989-1.3A3.111,3.111,0,0,1-63.589,90a2.073,2.073,0,0,1,1.78.879,2.779,2.779,0,0,1,.637,1.56,5.18,5.18,0,0,1-.176,1.34q-.308,1.187-.923,2.944a113.684,113.684,0,0,0-4.043,17.051l-.923,5.317q1.011-2.109,2.285-5.076t3.779-8.5a59.712,59.712,0,0,1,5.581-9.888q3.955-5.713,7.383-5.713,6.021,0,6.021,9.712a50.481,50.481,0,0,1-1.033,9.1q-1.033,5.449-2.285,11.909a69.683,69.683,0,0,0-1.384,10.679l-.527,2.417a2.534,2.534,0,0,1-.286,1.384q-.286.417-1.714.417A3.236,3.236,0,0,1-51.482,135a1.926,1.926,0,0,1-.417-1.89l4.395-26.279A50.4,50.4,0,0,0-46.714,99.4Zm39.155-5.8,4.307-18.9q.439-2.021,2.131-10.437T1.362,52.559l.176-1.1A2.744,2.744,0,0,1,2.307,49.5a2.222,2.222,0,0,1,1.6-.813q1.934,0,1.934,2.065v.4q0,2.153-3.1,16.392T-1.274,87.583q-.923,5.8-3.494,16.216T-8,117.861q-.659,3.647-1.274,6.174a21.206,21.206,0,0,0-.615,5.032,16.98,16.98,0,0,0,.791,5.054,2.743,2.743,0,0,1-.967,1.78,2.45,2.45,0,0,1-1.538.725q-1.143,0-1.978-2.7a15.9,15.9,0,0,1-.835-4.526,20.834,20.834,0,0,1,.527-4.285,18.7,18.7,0,0,1-4.658,8.064,10.663,10.663,0,0,1-7.493,2.615,6.825,6.825,0,0,1-6.592-3.8,16.213,16.213,0,0,1-1.956-7.449q0-13.447,5.1-22.764a36.945,36.945,0,0,1,4.2-6.372,23.472,23.472,0,0,1,4.68-3.955,12.468,12.468,0,0,1,7.031-1.89A6.229,6.229,0,0,1-7.559,93.6Zm-3.252,14.15q.7-3.6.9-4.592a18.631,18.631,0,0,0,.2-3.252,8.359,8.359,0,0,0-1.318-4.417,4.151,4.151,0,0,0-3.735-2.153q-4.307,0-7.888,5.427a46.924,46.924,0,0,0-5.713,12.656A44.541,44.541,0,0,0-30.5,123.618q0,4.966,2.813,7.075a3.959,3.959,0,0,0,2.461.7q3.12,0,6.68-5.317a49.09,49.09,0,0,0,5.317-10.042A50.852,50.852,0,0,0-10.811,107.754ZM25,127.617q1.538,0,1.538,1.626,0,1.89-4.614,4.263t-7.69,2.373a8.488,8.488,0,0,1-4.614-1.011,7.558,7.558,0,0,1-2.5-2.812,17.693,17.693,0,0,1-1.89-8.481,51.262,51.262,0,0,1,2.637-16.567,38.572,38.572,0,0,1,7.031-12.9q4.395-5.12,9.492-5.12a4.931,4.931,0,0,1,4.285,2.263,9.174,9.174,0,0,1,1.56,5.339,15.756,15.756,0,0,1-3.01,9.756,24.635,24.635,0,0,1-7.4,6.548,77.727,77.727,0,0,1-10.107,4.834l-.176,6.46q0,7.559,4.57,7.559a11.067,11.067,0,0,0,5.164-1.428q2.7-1.428,3.889-2.065A4.343,4.343,0,0,1,25,127.617Zm1.1-30.85q0-3.516-2.944-3.516-2.637,0-6.2,4.746a39.89,39.89,0,0,0-5.889,12.524,15.86,15.86,0,0,0-.659,2.856q1.758-.967,3.6-1.846t3.6-1.846a19.127,19.127,0,0,0,6.262-5.251A12.585,12.585,0,0,0,26.1,96.768Zm22.5,32.739a1.758,1.758,0,0,1,1.978,2q0,2-2.615,3.1a15.312,15.312,0,0,1-5.977,1.1q-3.362,0-4.944-1.8a6.427,6.427,0,0,1-1.582-4.395,36.763,36.763,0,0,1,.286-4.768q.286-2.175.989-6.042t1.626-8.7q.923-4.834,2.065-10.371T42.759,88.33q1.187-5.757,2.4-11.426t2.307-10.789q1.1-5.12,2.021-9.4t1.538-7.229a1.863,1.863,0,0,1,2.021-1.406q1.89,0,1.89,2.065v1.143q-1.714,8.218-3.384,16T45.857,94.263q-4.021,19.2-5.186,25.972a77.512,77.512,0,0,0-1.165,8.13,3.786,3.786,0,0,0,.835,2.417,2.447,2.447,0,0,0,1.956,1.055,5.4,5.4,0,0,0,2.043-.374q.923-.374,1.8-.791t1.582-.791A2.975,2.975,0,0,1,48.6,129.507ZM71.763,74.531a2.292,2.292,0,0,1,2.593,2.593q0,3.779-2.637,4.263a9.371,9.371,0,0,1-1.626.132,2.532,2.532,0,0,1-1.758-.879,3.063,3.063,0,0,1-.879-2.263,3.536,3.536,0,0,1,1.362-2.615A4.319,4.319,0,0,1,71.763,74.531Zm-6.2,20.522v-.879a16.076,16.076,0,0,0-.659-2.988,3.058,3.058,0,0,1,.747-2,2.287,2.287,0,0,1,1.824-.9,2.06,2.06,0,0,1,1.78,1.362,6.418,6.418,0,0,1,.7,2.988q0,1.626-4.131,19.424T61.7,130.8q0,.945.879.945.571,0,1.626-1.121a2.844,2.844,0,0,1,1.8-1.121q1.45,0,1.45,1.824t-2.725,3.186a10.49,10.49,0,0,1-3.955,1.362q-3.076,0-3.076-4.922a7.234,7.234,0,0,1,.417-2.263A32.388,32.388,0,0,0,59,125.222q.461-2.219,1.318-6.042t1.758-7.91q.9-4.087,2.2-9.91T65.566,95.054Zm31.9-5.493q8.306,0,8.306,12.568,0,9.8-5.405,21.05-3.647,7.559-8.789,10.9a9.87,9.87,0,0,1-5.449,1.714q-4.966,0-7.119-3.955a17.55,17.55,0,0,1-2.153-8.525,46.824,46.824,0,0,1,2.747-15.864,36.686,36.686,0,0,1,7.471-12.788Q91.8,89.561,97.471,89.561ZM85.693,104.106a41.307,41.307,0,0,0-4.746,18.545q0,6.284,3.472,8.438a4.465,4.465,0,0,0,2.417.659q2.813,0,6.284-4.878a45.253,45.253,0,0,0,5.845-12.019,39.944,39.944,0,0,0,2.373-12.261q0-5.12-.593-6.482a4.317,4.317,0,0,0-1.362-1.89,4.657,4.657,0,0,0-2.549-.527A7.155,7.155,0,0,0,92.944,95.1Q88.857,97.734,85.693,104.106Zm53.438-4.7q0-4.351-2.373-4.351-3.164,0-12.085,18.149-4.043,8.218-5.647,12.415t-2.4,5.911a11.014,11.014,0,0,1-1.56,2.593,2.251,2.251,0,0,1-1.714.879q-.945,0-1.121-.461a5.347,5.347,0,0,1-.176-1.67q0-1.208,3.538-20.742t4.087-20.544a3.673,3.673,0,0,1,.989-1.3A3.111,3.111,0,0,1,122.256,90a2.073,2.073,0,0,1,1.78.879,2.779,2.779,0,0,1,.637,1.56,5.18,5.18,0,0,1-.176,1.34q-.308,1.187-.923,2.944a113.684,113.684,0,0,0-4.043,17.051l-.923,5.317q1.011-2.109,2.285-5.076t3.779-8.5a59.712,59.712,0,0,1,5.581-9.888q3.955-5.713,7.383-5.713,6.021,0,6.021,9.712a50.481,50.481,0,0,1-1.033,9.1q-1.033,5.449-2.285,11.909a69.683,69.683,0,0,0-1.384,10.679l-.527,2.417a2.534,2.534,0,0,1-.286,1.384q-.286.417-1.714.417a3.236,3.236,0,0,1-2.065-.527,1.926,1.926,0,0,1-.417-1.89l4.395-26.279A50.4,50.4,0,0,0,139.131,99.4Zm33.926-63.413q1.143,0,1.538,1.538a77.457,77.457,0,0,1-1.143,9.58q-1.011,5.977-2.065,15.139t-4.043,24.983q-2.988,15.82-6.724,31.553a2.677,2.677,0,0,1-2.5,1.8q-1.362,0-1.538-1.8A560.719,560.719,0,0,0,168,55.986q.571-4.526,1.406-8.921a64.483,64.483,0,0,0,1.055-8.921,3.162,3.162,0,0,1,1.011-1.516A2.4,2.4,0,0,1,173.057,35.991ZM155.171,137.065a2.549,2.549,0,0,1-1.8-2.615,4.076,4.076,0,0,1,1.6-3.274,4.973,4.973,0,0,1,3.12-1.318,2.753,2.753,0,0,1,2.307,1.011,4.046,4.046,0,0,1,.791,2.571,7.949,7.949,0,0,1-1.252,3.757,3.716,3.716,0,0,1-3.274,2.2,1.561,1.561,0,0,1-1.187-.461,1.439,1.439,0,0,1-.439-1.011A2.236,2.236,0,0,1,155.171,137.065Z" transform="translate(184.482 99.009)"/></svg>