<svg xmlns="http://www.w3.org/2000/svg" width="272.145" height="24" viewBox="0 0 272.145 24"><defs><style>.a{fill:#20552c;}</style></defs><path class="a" d="M-131.777-12.738l-.211.949H-135.3l-1.582,7.441a9.194,9.194,0,0,0-.258,1.922q0,1.629,1.477,1.629a6.084,6.084,0,0,0,1.781-.3V-.094a7.7,7.7,0,0,1-1.992.328A2.412,2.412,0,0,1-137.672-.4a2.53,2.53,0,0,1-.633-1.857,12.2,12.2,0,0,1,.34-2.414l1.512-7.113h-2.133l.164-.785,2.156-.2,1.137-2.965h.645l-.645,3Zm7.441-.223a5.76,5.76,0,0,1,1.441.164l-.246,1.09a4.385,4.385,0,0,0-1.324-.176,3.434,3.434,0,0,0-2.1.75,6.677,6.677,0,0,0-1.793,2.25,12.455,12.455,0,0,0-1.172,3.246L-130.7,0h-1.148l2.707-12.738h.938l-.34,2.391h.07a10.539,10.539,0,0,1,1.441-1.588,4.76,4.76,0,0,1,1.248-.756A3.8,3.8,0,0,1-124.336-12.961Zm1.9.223h1.172l.961,6.422q.6,4.113.645,5.262h.129q.5-1.23,2.18-4.3l4.078-7.383h1.207l-8.355,15.117a10.5,10.5,0,0,1-1.436,2.086,4.685,4.685,0,0,1-1.336.949,3.976,3.976,0,0,1-1.717.352,4.612,4.612,0,0,1-1.512-.246V4.441a4.508,4.508,0,0,0,1.605.316,2.835,2.835,0,0,0,1.723-.58A5.873,5.873,0,0,0-121.57,2.25Q-120.832.9-120.4.094Zm23.707,0-.211.949h-3.316l-1.582,7.441a9.194,9.194,0,0,0-.258,1.922q0,1.629,1.477,1.629a6.084,6.084,0,0,0,1.781-.3V-.094a7.7,7.7,0,0,1-1.992.328A2.412,2.412,0,0,1-104.625-.4a2.53,2.53,0,0,1-.633-1.857,12.2,12.2,0,0,1,.34-2.414l1.512-7.113h-2.133l.164-.785,2.156-.2,1.137-2.965h.645l-.645,3Zm6.691-.246a4.183,4.183,0,0,1,3.264,1.271A5.029,5.029,0,0,1-87.621-8.2a11.109,11.109,0,0,1-.838,4.318A6.991,6.991,0,0,1-90.75-.82,5.557,5.557,0,0,1-94.1.234a4.112,4.112,0,0,1-3.275-1.283A5.422,5.422,0,0,1-98.5-4.723a10.359,10.359,0,0,1,.855-4.2,7.149,7.149,0,0,1,2.309-3.012A5.466,5.466,0,0,1-92.039-12.984Zm-.094,1.008a4.1,4.1,0,0,0-2.613.92A6.252,6.252,0,0,0-96.6-8.42a9.648,9.648,0,0,0-.691,3.639q0,4.008,3.3,4.008a4.156,4.156,0,0,0,2.643-.908A6.122,6.122,0,0,0-89.5-4.354a10.6,10.6,0,0,0,.686-3.873A4.075,4.075,0,0,0-89.672-11,3.1,3.1,0,0,0-92.133-11.977Zm20.25,8.52A3.316,3.316,0,0,1-73.09-.768a4.981,4.981,0,0,1-3.281,1,7.109,7.109,0,0,1-3.574-.879V-1.9a7.91,7.91,0,0,0,1.793.832,5.764,5.764,0,0,0,1.734.293,3.925,3.925,0,0,0,2.473-.674,2.3,2.3,0,0,0,.855-1.916,1.967,1.967,0,0,0-.182-.867,2.271,2.271,0,0,0-.586-.721,11.446,11.446,0,0,0-1.553-1,7.836,7.836,0,0,1-2.344-1.705,2.912,2.912,0,0,1-.609-1.869,3.042,3.042,0,0,1,1.154-2.455,4.617,4.617,0,0,1,3.041-.955,9.066,9.066,0,0,1,1.857.205,6.662,6.662,0,0,1,1.646.545l-.41,1.031a7.245,7.245,0,0,0-3.094-.75,3.521,3.521,0,0,0-2.18.621,1.937,1.937,0,0,0-.82,1.617,2.263,2.263,0,0,0,.2,1.031,2.685,2.685,0,0,0,.709.8,9.066,9.066,0,0,0,1.4.9,12.353,12.353,0,0,1,1.893,1.213,3.194,3.194,0,0,1,.82,1.014A2.821,2.821,0,0,1-71.883-3.457Zm5.8-9.281-1.781,8.18a10.092,10.092,0,0,0-.258,1.852,1.775,1.775,0,0,0,.557,1.377,2.324,2.324,0,0,0,1.623.51,4.285,4.285,0,0,0,2.432-.768,6.1,6.1,0,0,0,1.922-2.191,11.821,11.821,0,0,0,1.166-3.275l1.23-5.684h1.148L-60.75,0h-.937l.328-2.4h-.07A5.774,5.774,0,0,1-66.152.188a3.327,3.327,0,0,1-2.326-.727A2.737,2.737,0,0,1-69.27-2.66a10.942,10.942,0,0,1,.258-1.992l1.758-8.086Zm17.285-.223a5.76,5.76,0,0,1,1.441.164l-.246,1.09a4.385,4.385,0,0,0-1.324-.176,3.434,3.434,0,0,0-2.1.75,6.677,6.677,0,0,0-1.793,2.25,12.455,12.455,0,0,0-1.172,3.246L-55.16,0h-1.148L-53.6-12.738h.938L-53-10.348h.07a10.539,10.539,0,0,1,1.441-1.588,4.76,4.76,0,0,1,1.248-.756A3.8,3.8,0,0,1-48.8-12.961ZM-45.105,0l-2.016-12.738h1.184l1.266,8.613q.3,1.934.387,2.977h.07q.6-1.348,1.512-3l4.758-8.59h1.2L-43.781,0Zm9.293,0h-1.148l2.707-12.738h1.125Zm2.063-16.008a1.833,1.833,0,0,1,.258-1.031.8.8,0,0,1,.7-.387q.668,0,.668.844a1.881,1.881,0,0,1-.258,1.055.775.775,0,0,1-.668.387.627.627,0,0,1-.521-.229A1,1,0,0,1-33.75-16.008ZM-29.051,0l-2.016-12.738h1.184l1.266,8.613q.3,1.934.387,2.977h.07q.6-1.348,1.512-3l4.758-8.59h1.2L-27.727,0ZM-16.3.234a4.007,4.007,0,0,1-3.164-1.283A5.216,5.216,0,0,1-20.6-4.629,10.236,10.236,0,0,1-19.77-8.7a7.69,7.69,0,0,1,2.291-3.094,5.082,5.082,0,0,1,3.217-1.148,3.075,3.075,0,0,1,2.133.715,2.482,2.482,0,0,1,.8,1.945,3.538,3.538,0,0,1-1.916,3.234A11.56,11.56,0,0,1-18.937-5.93h-.387a8.548,8.548,0,0,0-.07,1.148,4.416,4.416,0,0,0,.867,2.947,3.1,3.1,0,0,0,2.5,1.014A7.154,7.154,0,0,0-12.8-1.676v1.1A7.821,7.821,0,0,1-16.3.234Zm1.9-12.164a3.942,3.942,0,0,0-2.854,1.354,7.9,7.9,0,0,0-1.9,3.615h.574q6.059,0,6.059-3.164a1.754,1.754,0,0,0-.51-1.295A1.845,1.845,0,0,0-14.4-11.93ZM-2.648,0H-3.8L-1.09-12.738H.035ZM-.586-16.008a1.833,1.833,0,0,1,.258-1.031.8.8,0,0,1,.7-.387q.668,0,.668.844a1.881,1.881,0,0,1-.258,1.055.775.775,0,0,1-.668.387A.627.627,0,0,1-.4-15.369,1,1,0,0,1-.586-16.008ZM9.832,0l1.746-8.109a8.447,8.447,0,0,0,.246-1.828,2.02,2.02,0,0,0-.51-1.465,2.1,2.1,0,0,0-1.576-.527,4.307,4.307,0,0,0-2.467.785,6.339,6.339,0,0,0-1.945,2.2A12.093,12.093,0,0,0,4.113-5.59L2.918,0H1.77L4.477-12.738h.961L5-10.148h.07a5.735,5.735,0,0,1,4.875-2.789,3.134,3.134,0,0,1,2.285.75A2.892,2.892,0,0,1,13-10.031,10.656,10.656,0,0,1,12.715-7.9L10.98,0ZM32.918-12.094a17.5,17.5,0,0,1-1.189,6.422A9.965,9.965,0,0,1,28.641-1.2,7.435,7.435,0,0,1,24.035.234a7.631,7.631,0,0,1-2.18-.258V-1.078a7.082,7.082,0,0,0,2.25.34q5.555,0,7.348-7.9h-.094a5.084,5.084,0,0,1-4.3,2.25,3.787,3.787,0,0,1-2.988-1.23,4.839,4.839,0,0,1-1.09-3.328,7.616,7.616,0,0,1,.7-3.293,5.339,5.339,0,0,1,2-2.3,5.525,5.525,0,0,1,3.012-.82A3.8,3.8,0,0,1,31.822-16,6.081,6.081,0,0,1,32.918-12.094Zm-4.371-4.23a4,4,0,0,0-2.314.686,4.323,4.323,0,0,0-1.529,1.9,6.717,6.717,0,0,0-.527,2.7A3.972,3.972,0,0,0,24.967-8.4a2.788,2.788,0,0,0,2.256.938,4.566,4.566,0,0,0,1.846-.381A4.813,4.813,0,0,0,30.58-8.871a3.812,3.812,0,0,0,.9-1.336,6.244,6.244,0,0,0,.258-2.062,4.745,4.745,0,0,0-.832-3A2.827,2.827,0,0,0,28.547-16.324Zm17.777,4.418a24.037,24.037,0,0,1-.48,4.746,14.9,14.9,0,0,1-1.365,4.055,6.66,6.66,0,0,1-2.15,2.5,5.024,5.024,0,0,1-2.836.838,3.534,3.534,0,0,1-3.1-1.482,7.985,7.985,0,0,1-1.037-4.541,20.112,20.112,0,0,1,.521-4.471,14.156,14.156,0,0,1,1.453-3.914A6.811,6.811,0,0,1,39.521-16.6a5.135,5.135,0,0,1,2.818-.8Q46.324-17.4,46.324-11.906ZM42.2-16.371a3.827,3.827,0,0,0-2.83,1.324,9.6,9.6,0,0,0-2.033,3.855,17.985,17.985,0,0,0-.773,5.285,7.875,7.875,0,0,0,.732,3.855A2.485,2.485,0,0,0,39.609-.8a3.809,3.809,0,0,0,2.859-1.312,9.273,9.273,0,0,0,1.945-3.949,21.845,21.845,0,0,0,.715-5.73,6.716,6.716,0,0,0-.7-3.457A2.43,2.43,0,0,0,42.2-16.371ZM61.535-3.457A3.316,3.316,0,0,1,60.328-.768a4.981,4.981,0,0,1-3.281,1,7.109,7.109,0,0,1-3.574-.879V-1.9a7.91,7.91,0,0,0,1.793.832A5.764,5.764,0,0,0,57-.773a3.925,3.925,0,0,0,2.473-.674,2.3,2.3,0,0,0,.855-1.916,1.967,1.967,0,0,0-.182-.867,2.271,2.271,0,0,0-.586-.721,11.446,11.446,0,0,0-1.553-1,7.836,7.836,0,0,1-2.344-1.705,2.912,2.912,0,0,1-.609-1.869,3.042,3.042,0,0,1,1.154-2.455,4.617,4.617,0,0,1,3.041-.955,9.066,9.066,0,0,1,1.857.205,6.662,6.662,0,0,1,1.646.545l-.41,1.031a7.245,7.245,0,0,0-3.094-.75,3.521,3.521,0,0,0-2.18.621,1.937,1.937,0,0,0-.82,1.617,2.263,2.263,0,0,0,.2,1.031,2.685,2.685,0,0,0,.709.8,9.066,9.066,0,0,0,1.4.9,12.353,12.353,0,0,1,1.893,1.213,3.194,3.194,0,0,1,.82,1.014A2.821,2.821,0,0,1,61.535-3.457ZM68.367.234A4.007,4.007,0,0,1,65.2-1.049a5.216,5.216,0,0,1-1.137-3.58A10.236,10.236,0,0,1,64.9-8.7a7.69,7.69,0,0,1,2.291-3.094,5.082,5.082,0,0,1,3.217-1.148,3.075,3.075,0,0,1,2.133.715,2.482,2.482,0,0,1,.8,1.945A3.538,3.538,0,0,1,71.42-7.043,11.56,11.56,0,0,1,65.73-5.93h-.387a8.548,8.548,0,0,0-.07,1.148,4.416,4.416,0,0,0,.867,2.947,3.1,3.1,0,0,0,2.5,1.014,7.154,7.154,0,0,0,3.234-.855v1.1A7.821,7.821,0,0,1,68.367.234Zm1.9-12.164a3.942,3.942,0,0,0-2.854,1.354,7.9,7.9,0,0,0-1.9,3.615h.574q6.059,0,6.059-3.164a1.754,1.754,0,0,0-.51-1.295A1.845,1.845,0,0,0,70.266-11.93ZM79.336.234a4.131,4.131,0,0,1-3.217-1.295,5.142,5.142,0,0,1-1.178-3.592A10.479,10.479,0,0,1,75.8-8.889,7.007,7.007,0,0,1,78.129-11.9a5.731,5.731,0,0,1,3.4-1.037,7.517,7.517,0,0,1,2.824.5l-.328,1.055a6.3,6.3,0,0,0-2.555-.551,4.452,4.452,0,0,0-2.725.9,5.926,5.926,0,0,0-1.9,2.6,9.861,9.861,0,0,0-.691,3.75,4.25,4.25,0,0,0,.861,2.854,3.047,3.047,0,0,0,2.443,1,7.335,7.335,0,0,0,1.541-.152,7.376,7.376,0,0,0,1.541-.539V-.434A7.177,7.177,0,0,1,79.336.234Zm12.41-13.219a4.183,4.183,0,0,1,3.264,1.271A5.029,5.029,0,0,1,96.164-8.2a11.109,11.109,0,0,1-.838,4.318A6.991,6.991,0,0,1,93.035-.82,5.557,5.557,0,0,1,89.684.234a4.112,4.112,0,0,1-3.275-1.283,5.422,5.422,0,0,1-1.119-3.674,10.359,10.359,0,0,1,.855-4.2,7.149,7.149,0,0,1,2.309-3.012A5.466,5.466,0,0,1,91.746-12.984Zm-.094,1.008a4.1,4.1,0,0,0-2.613.92A6.252,6.252,0,0,0,87.188-8.42,9.648,9.648,0,0,0,86.5-4.781q0,4.008,3.3,4.008a4.156,4.156,0,0,0,2.643-.908,6.122,6.122,0,0,0,1.84-2.672,10.6,10.6,0,0,0,.686-3.873A4.075,4.075,0,0,0,94.113-11,3.1,3.1,0,0,0,91.652-11.977ZM106.266,0l1.746-8.109a8.447,8.447,0,0,0,.246-1.828,2.02,2.02,0,0,0-.51-1.465,2.1,2.1,0,0,0-1.576-.527,4.307,4.307,0,0,0-2.467.785,6.339,6.339,0,0,0-1.945,2.2,12.093,12.093,0,0,0-1.213,3.357L99.352,0H98.2l2.707-12.738h.961l-.434,2.59h.07a5.735,5.735,0,0,1,4.875-2.789,3.134,3.134,0,0,1,2.285.75,2.892,2.892,0,0,1,.762,2.156,10.656,10.656,0,0,1-.281,2.133L107.414,0Zm12.117-12.937a3.011,3.011,0,0,1,3.27,2.566h.047q.141-.773,1.676-7.863h1.16L120.668,0h-.961l.527-3.211h-.07Q118.137.234,115.2.234q-3.293,0-3.293-4.383a11.469,11.469,0,0,1,.838-4.336,7.865,7.865,0,0,1,2.314-3.264A5.167,5.167,0,0,1,118.383-12.937ZM115.465-.82a3.638,3.638,0,0,0,2.092-.732,7.317,7.317,0,0,0,1.875-1.969,9.606,9.606,0,0,0,1.248-2.707,9.235,9.235,0,0,0,.422-2.455,3.626,3.626,0,0,0-.721-2.361,2.409,2.409,0,0,0-1.975-.885,4.006,4.006,0,0,0-2.625.973,6.98,6.98,0,0,0-1.922,2.842,10.219,10.219,0,0,0-.75,3.838Q113.109-.82,115.465-.82ZM132.34-3.457a3.316,3.316,0,0,1-1.207,2.689,4.981,4.981,0,0,1-3.281,1,7.109,7.109,0,0,1-3.574-.879V-1.9a7.91,7.91,0,0,0,1.793.832,5.764,5.764,0,0,0,1.734.293,3.925,3.925,0,0,0,2.473-.674,2.3,2.3,0,0,0,.855-1.916,1.967,1.967,0,0,0-.182-.867,2.271,2.271,0,0,0-.586-.721,11.446,11.446,0,0,0-1.553-1,7.836,7.836,0,0,1-2.344-1.705,2.912,2.912,0,0,1-.609-1.869,3.042,3.042,0,0,1,1.154-2.455,4.617,4.617,0,0,1,3.041-.955,9.066,9.066,0,0,1,1.857.205,6.662,6.662,0,0,1,1.646.545l-.41,1.031a7.245,7.245,0,0,0-3.094-.75,3.521,3.521,0,0,0-2.18.621,1.937,1.937,0,0,0-.82,1.617,2.263,2.263,0,0,0,.2,1.031,2.685,2.685,0,0,0,.709.8,9.066,9.066,0,0,0,1.4.9,12.353,12.353,0,0,1,1.893,1.213,3.194,3.194,0,0,1,.82,1.014A2.821,2.821,0,0,1,132.34-3.457Z" transform="translate(138.586 18.234)"/></svg>